<?xml version="1.0" encoding="utf-8" standalone="no"?>
<!DOCTYPE svg PUBLIC "-//W3C//DTD SVG 1.1//EN"
  "http://www.w3.org/Graphics/SVG/1.1/DTD/svg11.dtd">
<!-- Created with matplotlib (https://matplotlib.org/) -->
<svg height="504pt" version="1.1" viewBox="0 0 432 504" width="432pt" xmlns="http://www.w3.org/2000/svg" xmlns:xlink="http://www.w3.org/1999/xlink">
 <metadata>
  <rdf:RDF xmlns:cc="http://creativecommons.org/ns#" xmlns:dc="http://purl.org/dc/elements/1.1/" xmlns:rdf="http://www.w3.org/1999/02/22-rdf-syntax-ns#">
   <cc:Work>
    <dc:type rdf:resource="http://purl.org/dc/dcmitype/StillImage"/>
    <dc:date>2021-03-15T17:14:18.715719</dc:date>
    <dc:format>image/svg+xml</dc:format>
    <dc:creator>
     <cc:Agent>
      <dc:title>Matplotlib v3.3.2, https://matplotlib.org/</dc:title>
     </cc:Agent>
    </dc:creator>
   </cc:Work>
  </rdf:RDF>
 </metadata>
 <defs>
  <style type="text/css">*{stroke-linecap:butt;stroke-linejoin:round;}</style>
 </defs>
 <g id="figure_1">
  <g id="patch_1">
   <path d="M 0 504 
L 432 504 
L 432 0 
L 0 0 
z
" style="fill:#ffffff;"/>
  </g>
  <g id="axes_1">
   <g id="patch_2">
    <path d="M 68.08 150.32 
L 378 150.32 
L 378 10.8 
L 68.08 10.8 
z
" style="fill:#ffffff;"/>
   </g>
   <g id="matplotlib.axis_1">
    <g id="text_1">
     <!-- Zeit -->
     <g transform="translate(213.189219 161.918437)scale(0.1 -0.1)">
      <defs>
       <path d="M 5.609375 72.90625 
L 62.890625 72.90625 
L 62.890625 65.375 
L 16.796875 8.296875 
L 64.015625 8.296875 
L 64.015625 0 
L 4.5 0 
L 4.5 7.515625 
L 50.59375 64.59375 
L 5.609375 64.59375 
z
" id="DejaVuSans-90"/>
       <path d="M 56.203125 29.59375 
L 56.203125 25.203125 
L 14.890625 25.203125 
Q 15.484375 15.921875 20.484375 11.0625 
Q 25.484375 6.203125 34.421875 6.203125 
Q 39.59375 6.203125 44.453125 7.46875 
Q 49.3125 8.734375 54.109375 11.28125 
L 54.109375 2.78125 
Q 49.265625 0.734375 44.1875 -0.34375 
Q 39.109375 -1.421875 33.890625 -1.421875 
Q 20.796875 -1.421875 13.15625 6.1875 
Q 5.515625 13.8125 5.515625 26.8125 
Q 5.515625 40.234375 12.765625 48.109375 
Q 20.015625 56 32.328125 56 
Q 43.359375 56 49.78125 48.890625 
Q 56.203125 41.796875 56.203125 29.59375 
z
M 47.21875 32.234375 
Q 47.125 39.59375 43.09375 43.984375 
Q 39.0625 48.390625 32.421875 48.390625 
Q 24.90625 48.390625 20.390625 44.140625 
Q 15.875 39.890625 15.1875 32.171875 
z
" id="DejaVuSans-101"/>
       <path d="M 9.421875 54.6875 
L 18.40625 54.6875 
L 18.40625 0 
L 9.421875 0 
z
M 9.421875 75.984375 
L 18.40625 75.984375 
L 18.40625 64.59375 
L 9.421875 64.59375 
z
" id="DejaVuSans-105"/>
       <path d="M 18.3125 70.21875 
L 18.3125 54.6875 
L 36.8125 54.6875 
L 36.8125 47.703125 
L 18.3125 47.703125 
L 18.3125 18.015625 
Q 18.3125 11.328125 20.140625 9.421875 
Q 21.96875 7.515625 27.59375 7.515625 
L 36.8125 7.515625 
L 36.8125 0 
L 27.59375 0 
Q 17.1875 0 13.234375 3.875 
Q 9.28125 7.765625 9.28125 18.015625 
L 9.28125 47.703125 
L 2.6875 47.703125 
L 2.6875 54.6875 
L 9.28125 54.6875 
L 9.28125 70.21875 
z
" id="DejaVuSans-116"/>
      </defs>
      <use xlink:href="#DejaVuSans-90"/>
      <use x="68.505859" xlink:href="#DejaVuSans-101"/>
      <use x="130.029297" xlink:href="#DejaVuSans-105"/>
      <use x="157.8125" xlink:href="#DejaVuSans-116"/>
     </g>
    </g>
   </g>
   <g id="matplotlib.axis_2">
    <g id="text_2">
     <!-- Regelgröße -->
     <g transform="translate(62.000313 108.927969)rotate(-90)scale(0.1 -0.1)">
      <defs>
       <path d="M 44.390625 34.1875 
Q 47.5625 33.109375 50.5625 29.59375 
Q 53.5625 26.078125 56.59375 19.921875 
L 66.609375 0 
L 56 0 
L 46.6875 18.703125 
Q 43.0625 26.03125 39.671875 28.421875 
Q 36.28125 30.8125 30.421875 30.8125 
L 19.671875 30.8125 
L 19.671875 0 
L 9.8125 0 
L 9.8125 72.90625 
L 32.078125 72.90625 
Q 44.578125 72.90625 50.734375 67.671875 
Q 56.890625 62.453125 56.890625 51.90625 
Q 56.890625 45.015625 53.6875 40.46875 
Q 50.484375 35.9375 44.390625 34.1875 
z
M 19.671875 64.796875 
L 19.671875 38.921875 
L 32.078125 38.921875 
Q 39.203125 38.921875 42.84375 42.21875 
Q 46.484375 45.515625 46.484375 51.90625 
Q 46.484375 58.296875 42.84375 61.546875 
Q 39.203125 64.796875 32.078125 64.796875 
z
" id="DejaVuSans-82"/>
       <path d="M 45.40625 27.984375 
Q 45.40625 37.75 41.375 43.109375 
Q 37.359375 48.484375 30.078125 48.484375 
Q 22.859375 48.484375 18.828125 43.109375 
Q 14.796875 37.75 14.796875 27.984375 
Q 14.796875 18.265625 18.828125 12.890625 
Q 22.859375 7.515625 30.078125 7.515625 
Q 37.359375 7.515625 41.375 12.890625 
Q 45.40625 18.265625 45.40625 27.984375 
z
M 54.390625 6.78125 
Q 54.390625 -7.171875 48.1875 -13.984375 
Q 42 -20.796875 29.203125 -20.796875 
Q 24.46875 -20.796875 20.265625 -20.09375 
Q 16.0625 -19.390625 12.109375 -17.921875 
L 12.109375 -9.1875 
Q 16.0625 -11.328125 19.921875 -12.34375 
Q 23.78125 -13.375 27.78125 -13.375 
Q 36.625 -13.375 41.015625 -8.765625 
Q 45.40625 -4.15625 45.40625 5.171875 
L 45.40625 9.625 
Q 42.625 4.78125 38.28125 2.390625 
Q 33.9375 0 27.875 0 
Q 17.828125 0 11.671875 7.65625 
Q 5.515625 15.328125 5.515625 27.984375 
Q 5.515625 40.671875 11.671875 48.328125 
Q 17.828125 56 27.875 56 
Q 33.9375 56 38.28125 53.609375 
Q 42.625 51.21875 45.40625 46.390625 
L 45.40625 54.6875 
L 54.390625 54.6875 
z
" id="DejaVuSans-103"/>
       <path d="M 9.421875 75.984375 
L 18.40625 75.984375 
L 18.40625 0 
L 9.421875 0 
z
" id="DejaVuSans-108"/>
       <path d="M 41.109375 46.296875 
Q 39.59375 47.171875 37.8125 47.578125 
Q 36.03125 48 33.890625 48 
Q 26.265625 48 22.1875 43.046875 
Q 18.109375 38.09375 18.109375 28.8125 
L 18.109375 0 
L 9.078125 0 
L 9.078125 54.6875 
L 18.109375 54.6875 
L 18.109375 46.1875 
Q 20.953125 51.171875 25.484375 53.578125 
Q 30.03125 56 36.53125 56 
Q 37.453125 56 38.578125 55.875 
Q 39.703125 55.765625 41.0625 55.515625 
z
" id="DejaVuSans-114"/>
       <path d="M 30.609375 48.390625 
Q 23.390625 48.390625 19.1875 42.75 
Q 14.984375 37.109375 14.984375 27.296875 
Q 14.984375 17.484375 19.15625 11.84375 
Q 23.34375 6.203125 30.609375 6.203125 
Q 37.796875 6.203125 41.984375 11.859375 
Q 46.1875 17.53125 46.1875 27.296875 
Q 46.1875 37.015625 41.984375 42.703125 
Q 37.796875 48.390625 30.609375 48.390625 
z
M 30.609375 56 
Q 42.328125 56 49.015625 48.375 
Q 55.71875 40.765625 55.71875 27.296875 
Q 55.71875 13.875 49.015625 6.21875 
Q 42.328125 -1.421875 30.609375 -1.421875 
Q 18.84375 -1.421875 12.171875 6.21875 
Q 5.515625 13.875 5.515625 27.296875 
Q 5.515625 40.765625 12.171875 48.375 
Q 18.84375 56 30.609375 56 
z
M 35.203125 75.78125 
L 45.125 75.78125 
L 45.125 65.921875 
L 35.203125 65.921875 
z
M 16.109375 75.78125 
L 26.03125 75.78125 
L 26.03125 65.921875 
L 16.109375 65.921875 
z
" id="DejaVuSans-246"/>
       <path d="M 9.078125 55.515625 
Q 9.078125 65.28125 14.90625 70.625 
Q 20.75 75.984375 31.390625 75.984375 
Q 41.546875 75.984375 46.890625 70.3125 
Q 52.25 64.65625 52.390625 53.71875 
Q 45.015625 53.328125 40.90625 50.515625 
Q 36.8125 47.703125 36.8125 43.015625 
Q 36.8125 40.71875 38.234375 38.734375 
Q 39.65625 36.765625 42.828125 34.71875 
L 45.609375 32.90625 
Q 53.71875 27.734375 56.0625 24.265625 
Q 58.40625 20.796875 58.40625 15.921875 
Q 58.40625 7.515625 52.90625 3.046875 
Q 47.40625 -1.421875 37.109375 -1.421875 
Q 33.984375 -1.421875 30.65625 -0.8125 
Q 27.34375 -0.203125 23.78125 0.984375 
L 23.78125 8.984375 
Q 27.6875 7.515625 31.09375 6.8125 
Q 34.515625 6.109375 37.703125 6.109375 
Q 43.359375 6.109375 46.28125 8.421875 
Q 49.21875 10.75 49.21875 15.1875 
Q 49.21875 18.265625 47.78125 20.3125 
Q 46.34375 22.359375 41.40625 25.390625 
L 36.921875 28.078125 
Q 32.234375 30.953125 30.109375 34.25 
Q 27.984375 37.546875 27.984375 42 
Q 27.984375 48.1875 32.0625 52.390625 
Q 36.140625 56.59375 43.5 58.015625 
Q 43.109375 63.03125 39.90625 65.765625 
Q 36.71875 68.5 31.203125 68.5 
Q 24.859375 68.5 21.53125 65.109375 
Q 18.21875 61.71875 18.21875 55.328125 
L 18.21875 0 
L 9.078125 0 
z
" id="DejaVuSans-223"/>
      </defs>
      <use xlink:href="#DejaVuSans-82"/>
      <use x="64.982422" xlink:href="#DejaVuSans-101"/>
      <use x="126.505859" xlink:href="#DejaVuSans-103"/>
      <use x="189.982422" xlink:href="#DejaVuSans-101"/>
      <use x="251.505859" xlink:href="#DejaVuSans-108"/>
      <use x="279.289062" xlink:href="#DejaVuSans-103"/>
      <use x="342.765625" xlink:href="#DejaVuSans-114"/>
      <use x="381.628906" xlink:href="#DejaVuSans-246"/>
      <use x="442.810547" xlink:href="#DejaVuSans-223"/>
      <use x="505.798828" xlink:href="#DejaVuSans-101"/>
     </g>
    </g>
   </g>
   <g id="line2d_1">
    <path clip-path="url(#p83dcacaca2)" d="M 82.167273 72.808889 
L 363.912727 72.808889 
" style="fill:none;stroke:#1f77b4;stroke-linecap:square;stroke-width:1.5;"/>
   </g>
   <g id="line2d_2">
    <path clip-path="url(#p83dcacaca2)" d="M 82.167273 150.32 
L 85.949091 150.211092 
L 87.84 149.909104 
L 89.730909 149.337516 
L 91.621818 148.480849 
L 93.512727 147.360817 
L 95.403636 146.020574 
L 99.185455 142.89161 
L 106.749091 136.203074 
L 110.530909 133.200929 
L 114.312727 130.625063 
L 118.094545 128.521502 
L 121.876364 126.882082 
L 125.658182 125.664682 
L 129.44 124.809078 
L 133.221818 124.248497 
L 137.003636 123.917426 
L 142.676364 123.723424 
L 150.24 123.787409 
L 182.385455 124.458915 
L 205.076364 124.505774 
L 363.912727 124.482962 
L 363.912727 124.482962 
" style="fill:none;stroke:#ff7f0e;stroke-linecap:square;stroke-width:1.5;"/>
   </g>
   <g id="patch_3">
    <path d="M 68.08 150.32 
L 68.08 10.8 
" style="fill:none;stroke:#000000;stroke-linecap:square;stroke-linejoin:miter;stroke-width:0.8;"/>
   </g>
   <g id="patch_4">
    <path d="M 378 150.32 
L 378 10.8 
" style="fill:none;stroke:#000000;stroke-linecap:square;stroke-linejoin:miter;stroke-width:0.8;"/>
   </g>
   <g id="patch_5">
    <path d="M 68.08 150.32 
L 378 150.32 
" style="fill:none;stroke:#000000;stroke-linecap:square;stroke-linejoin:miter;stroke-width:0.8;"/>
   </g>
   <g id="patch_6">
    <path d="M 68.08 10.8 
L 378 10.8 
" style="fill:none;stroke:#000000;stroke-linecap:square;stroke-linejoin:miter;stroke-width:0.8;"/>
   </g>
   <g id="text_3">
    <!-- $K_{\rm p}$ zu klein -->
    <g transform="translate(280.712727 37.335556)scale(0.1 -0.1)">
     <defs>
      <path d="M 16.890625 72.90625 
L 26.8125 72.90625 
L 20.796875 42.1875 
L 59.078125 72.90625 
L 72.21875 72.90625 
L 28.90625 38.09375 
L 60.59375 0 
L 48.578125 0 
L 19.484375 35.5 
L 12.59375 0 
L 2.6875 0 
z
" id="DejaVuSans-Oblique-75"/>
      <path d="M 18.109375 8.203125 
L 18.109375 -20.796875 
L 9.078125 -20.796875 
L 9.078125 54.6875 
L 18.109375 54.6875 
L 18.109375 46.390625 
Q 20.953125 51.265625 25.265625 53.625 
Q 29.59375 56 35.59375 56 
Q 45.5625 56 51.78125 48.09375 
Q 58.015625 40.1875 58.015625 27.296875 
Q 58.015625 14.40625 51.78125 6.484375 
Q 45.5625 -1.421875 35.59375 -1.421875 
Q 29.59375 -1.421875 25.265625 0.953125 
Q 20.953125 3.328125 18.109375 8.203125 
z
M 48.6875 27.296875 
Q 48.6875 37.203125 44.609375 42.84375 
Q 40.53125 48.484375 33.40625 48.484375 
Q 26.265625 48.484375 22.1875 42.84375 
Q 18.109375 37.203125 18.109375 27.296875 
Q 18.109375 17.390625 22.1875 11.75 
Q 26.265625 6.109375 33.40625 6.109375 
Q 40.53125 6.109375 44.609375 11.75 
Q 48.6875 17.390625 48.6875 27.296875 
z
" id="DejaVuSans-112"/>
      <path id="DejaVuSans-32"/>
      <path d="M 5.515625 54.6875 
L 48.1875 54.6875 
L 48.1875 46.484375 
L 14.40625 7.171875 
L 48.1875 7.171875 
L 48.1875 0 
L 4.296875 0 
L 4.296875 8.203125 
L 38.09375 47.515625 
L 5.515625 47.515625 
z
" id="DejaVuSans-122"/>
      <path d="M 8.5 21.578125 
L 8.5 54.6875 
L 17.484375 54.6875 
L 17.484375 21.921875 
Q 17.484375 14.15625 20.5 10.265625 
Q 23.53125 6.390625 29.59375 6.390625 
Q 36.859375 6.390625 41.078125 11.03125 
Q 45.3125 15.671875 45.3125 23.6875 
L 45.3125 54.6875 
L 54.296875 54.6875 
L 54.296875 0 
L 45.3125 0 
L 45.3125 8.40625 
Q 42.046875 3.421875 37.71875 1 
Q 33.40625 -1.421875 27.6875 -1.421875 
Q 18.265625 -1.421875 13.375 4.4375 
Q 8.5 10.296875 8.5 21.578125 
z
M 31.109375 56 
z
" id="DejaVuSans-117"/>
      <path d="M 9.078125 75.984375 
L 18.109375 75.984375 
L 18.109375 31.109375 
L 44.921875 54.6875 
L 56.390625 54.6875 
L 27.390625 29.109375 
L 57.625 0 
L 45.90625 0 
L 18.109375 26.703125 
L 18.109375 0 
L 9.078125 0 
z
" id="DejaVuSans-107"/>
      <path d="M 54.890625 33.015625 
L 54.890625 0 
L 45.90625 0 
L 45.90625 32.71875 
Q 45.90625 40.484375 42.875 44.328125 
Q 39.84375 48.1875 33.796875 48.1875 
Q 26.515625 48.1875 22.3125 43.546875 
Q 18.109375 38.921875 18.109375 30.90625 
L 18.109375 0 
L 9.078125 0 
L 9.078125 54.6875 
L 18.109375 54.6875 
L 18.109375 46.1875 
Q 21.34375 51.125 25.703125 53.5625 
Q 30.078125 56 35.796875 56 
Q 45.21875 56 50.046875 50.171875 
Q 54.890625 44.34375 54.890625 33.015625 
z
" id="DejaVuSans-110"/>
     </defs>
     <use transform="translate(0 0.015625)" xlink:href="#DejaVuSans-Oblique-75"/>
     <use transform="translate(65.576172 -16.390625)scale(0.7)" xlink:href="#DejaVuSans-112"/>
     <use transform="translate(112.744141 0.015625)" xlink:href="#DejaVuSans-32"/>
     <use transform="translate(144.53125 0.015625)" xlink:href="#DejaVuSans-122"/>
     <use transform="translate(197.021484 0.015625)" xlink:href="#DejaVuSans-117"/>
     <use transform="translate(260.400391 0.015625)" xlink:href="#DejaVuSans-32"/>
     <use transform="translate(292.1875 0.015625)" xlink:href="#DejaVuSans-107"/>
     <use transform="translate(350.097656 0.015625)" xlink:href="#DejaVuSans-108"/>
     <use transform="translate(377.880859 0.015625)" xlink:href="#DejaVuSans-101"/>
     <use transform="translate(439.404297 0.015625)" xlink:href="#DejaVuSans-105"/>
     <use transform="translate(467.1875 0.015625)" xlink:href="#DejaVuSans-110"/>
    </g>
    <!-- ($X_{\rm p}$ zu groß) -->
    <g transform="translate(280.712727 49.555556)scale(0.1 -0.1)">
     <defs>
      <path d="M 31 75.875 
Q 24.46875 64.65625 21.28125 53.65625 
Q 18.109375 42.671875 18.109375 31.390625 
Q 18.109375 20.125 21.3125 9.0625 
Q 24.515625 -2 31 -13.1875 
L 23.1875 -13.1875 
Q 15.875 -1.703125 12.234375 9.375 
Q 8.59375 20.453125 8.59375 31.390625 
Q 8.59375 42.28125 12.203125 53.3125 
Q 15.828125 64.359375 23.1875 75.875 
z
" id="DejaVuSans-40"/>
      <path d="M 13.71875 72.90625 
L 23.6875 72.90625 
L 36.1875 46.578125 
L 58.796875 72.90625 
L 70.3125 72.90625 
L 40.28125 38.09375 
L 58.40625 0 
L 48.484375 0 
L 33.796875 30.71875 
L 7.171875 0 
L -4.296875 0 
L 29.78125 39.203125 
z
" id="DejaVuSans-Oblique-88"/>
      <path d="M 30.609375 48.390625 
Q 23.390625 48.390625 19.1875 42.75 
Q 14.984375 37.109375 14.984375 27.296875 
Q 14.984375 17.484375 19.15625 11.84375 
Q 23.34375 6.203125 30.609375 6.203125 
Q 37.796875 6.203125 41.984375 11.859375 
Q 46.1875 17.53125 46.1875 27.296875 
Q 46.1875 37.015625 41.984375 42.703125 
Q 37.796875 48.390625 30.609375 48.390625 
z
M 30.609375 56 
Q 42.328125 56 49.015625 48.375 
Q 55.71875 40.765625 55.71875 27.296875 
Q 55.71875 13.875 49.015625 6.21875 
Q 42.328125 -1.421875 30.609375 -1.421875 
Q 18.84375 -1.421875 12.171875 6.21875 
Q 5.515625 13.875 5.515625 27.296875 
Q 5.515625 40.765625 12.171875 48.375 
Q 18.84375 56 30.609375 56 
z
" id="DejaVuSans-111"/>
      <path d="M 8.015625 75.875 
L 15.828125 75.875 
Q 23.140625 64.359375 26.78125 53.3125 
Q 30.421875 42.28125 30.421875 31.390625 
Q 30.421875 20.453125 26.78125 9.375 
Q 23.140625 -1.703125 15.828125 -13.1875 
L 8.015625 -13.1875 
Q 14.5 -2 17.703125 9.0625 
Q 20.90625 20.125 20.90625 31.390625 
Q 20.90625 42.671875 17.703125 53.65625 
Q 14.5 64.65625 8.015625 75.875 
z
" id="DejaVuSans-41"/>
     </defs>
     <use transform="translate(0 0.015625)" xlink:href="#DejaVuSans-40"/>
     <use transform="translate(39.013672 0.015625)" xlink:href="#DejaVuSans-Oblique-88"/>
     <use transform="translate(107.519531 -16.390625)scale(0.7)" xlink:href="#DejaVuSans-112"/>
     <use transform="translate(154.6875 0.015625)" xlink:href="#DejaVuSans-32"/>
     <use transform="translate(186.474609 0.015625)" xlink:href="#DejaVuSans-122"/>
     <use transform="translate(238.964844 0.015625)" xlink:href="#DejaVuSans-117"/>
     <use transform="translate(302.34375 0.015625)" xlink:href="#DejaVuSans-32"/>
     <use transform="translate(334.130859 0.015625)" xlink:href="#DejaVuSans-103"/>
     <use transform="translate(397.607422 0.015625)" xlink:href="#DejaVuSans-114"/>
     <use transform="translate(438.720703 0.015625)" xlink:href="#DejaVuSans-111"/>
     <use transform="translate(499.902344 0.015625)" xlink:href="#DejaVuSans-223"/>
     <use transform="translate(562.890625 0.015625)" xlink:href="#DejaVuSans-41"/>
    </g>
   </g>
  </g>
  <g id="axes_2">
   <g id="patch_7">
    <path d="M 68.08 314.72 
L 378 314.72 
L 378 175.2 
L 68.08 175.2 
z
" style="fill:#ffffff;"/>
   </g>
   <g id="matplotlib.axis_3">
    <g id="text_4">
     <!-- Zeit -->
     <g transform="translate(213.189219 326.318437)scale(0.1 -0.1)">
      <use xlink:href="#DejaVuSans-90"/>
      <use x="68.505859" xlink:href="#DejaVuSans-101"/>
      <use x="130.029297" xlink:href="#DejaVuSans-105"/>
      <use x="157.8125" xlink:href="#DejaVuSans-116"/>
     </g>
    </g>
   </g>
   <g id="matplotlib.axis_4">
    <g id="text_5">
     <!-- Regelgröße -->
     <g transform="translate(62.000313 273.327969)rotate(-90)scale(0.1 -0.1)">
      <use xlink:href="#DejaVuSans-82"/>
      <use x="64.982422" xlink:href="#DejaVuSans-101"/>
      <use x="126.505859" xlink:href="#DejaVuSans-103"/>
      <use x="189.982422" xlink:href="#DejaVuSans-101"/>
      <use x="251.505859" xlink:href="#DejaVuSans-108"/>
      <use x="279.289062" xlink:href="#DejaVuSans-103"/>
      <use x="342.765625" xlink:href="#DejaVuSans-114"/>
      <use x="381.628906" xlink:href="#DejaVuSans-246"/>
      <use x="442.810547" xlink:href="#DejaVuSans-223"/>
      <use x="505.798828" xlink:href="#DejaVuSans-101"/>
     </g>
    </g>
   </g>
   <g id="line2d_3">
    <path clip-path="url(#p4f45c00bb7)" d="M 82.167273 237.208889 
L 363.912727 237.208889 
" style="fill:none;stroke:#1f77b4;stroke-linecap:square;stroke-width:1.5;"/>
   </g>
   <g id="line2d_4">
    <path clip-path="url(#p4f45c00bb7)" d="M 82.167273 314.72 
L 84.058182 314.682844 
L 85.949091 314.284414 
L 87.84 313.07724 
L 89.730909 310.795921 
L 91.621818 307.388522 
L 93.512727 302.961723 
L 95.403636 297.719432 
L 99.185455 285.812763 
L 102.967273 273.726446 
L 104.858182 268.173301 
L 106.749091 263.172594 
L 108.64 258.842375 
L 110.530909 255.259583 
L 112.421818 252.462221 
L 114.312727 250.452916 
L 116.203636 249.203469 
L 118.094545 248.660034 
L 119.985455 248.748632 
L 121.876364 249.380713 
L 123.767273 250.458549 
L 125.658182 251.880259 
L 129.44 255.353471 
L 135.112727 260.804833 
L 137.003636 262.403801 
L 138.894545 263.812469 
L 140.785455 265.001736 
L 142.676364 265.954939 
L 144.567273 266.666828 
L 146.458182 267.142234 
L 148.349091 267.394523 
L 150.24 267.443931 
L 152.130909 267.315848 
L 154.021818 267.039142 
L 157.803636 266.163321 
L 169.149091 262.981504 
L 172.930909 262.26885 
L 176.712727 261.846589 
L 180.494545 261.70236 
L 184.276364 261.787032 
L 189.949091 262.189109 
L 201.294545 263.138367 
L 206.967273 263.392786 
L 212.64 263.454907 
L 222.094545 263.277269 
L 237.221818 262.947059 
L 248.567273 262.940598 
L 282.603636 263.071416 
L 333.658182 263.049373 
L 363.912727 263.044903 
L 363.912727 263.044903 
" style="fill:none;stroke:#ff7f0e;stroke-linecap:square;stroke-width:1.5;"/>
   </g>
   <g id="patch_8">
    <path d="M 68.08 314.72 
L 68.08 175.2 
" style="fill:none;stroke:#000000;stroke-linecap:square;stroke-linejoin:miter;stroke-width:0.8;"/>
   </g>
   <g id="patch_9">
    <path d="M 378 314.72 
L 378 175.2 
" style="fill:none;stroke:#000000;stroke-linecap:square;stroke-linejoin:miter;stroke-width:0.8;"/>
   </g>
   <g id="patch_10">
    <path d="M 68.08 314.72 
L 378 314.72 
" style="fill:none;stroke:#000000;stroke-linecap:square;stroke-linejoin:miter;stroke-width:0.8;"/>
   </g>
   <g id="patch_11">
    <path d="M 68.08 175.2 
L 378 175.2 
" style="fill:none;stroke:#000000;stroke-linecap:square;stroke-linejoin:miter;stroke-width:0.8;"/>
   </g>
   <g id="text_6">
    <!-- gute Einstellung -->
    <g transform="translate(280.712727 213.955556)scale(0.1 -0.1)">
     <defs>
      <path d="M 9.8125 72.90625 
L 55.90625 72.90625 
L 55.90625 64.59375 
L 19.671875 64.59375 
L 19.671875 43.015625 
L 54.390625 43.015625 
L 54.390625 34.71875 
L 19.671875 34.71875 
L 19.671875 8.296875 
L 56.78125 8.296875 
L 56.78125 0 
L 9.8125 0 
z
" id="DejaVuSans-69"/>
      <path d="M 44.28125 53.078125 
L 44.28125 44.578125 
Q 40.484375 46.53125 36.375 47.5 
Q 32.28125 48.484375 27.875 48.484375 
Q 21.1875 48.484375 17.84375 46.4375 
Q 14.5 44.390625 14.5 40.28125 
Q 14.5 37.15625 16.890625 35.375 
Q 19.28125 33.59375 26.515625 31.984375 
L 29.59375 31.296875 
Q 39.15625 29.25 43.1875 25.515625 
Q 47.21875 21.78125 47.21875 15.09375 
Q 47.21875 7.46875 41.1875 3.015625 
Q 35.15625 -1.421875 24.609375 -1.421875 
Q 20.21875 -1.421875 15.453125 -0.5625 
Q 10.6875 0.296875 5.421875 2 
L 5.421875 11.28125 
Q 10.40625 8.6875 15.234375 7.390625 
Q 20.0625 6.109375 24.8125 6.109375 
Q 31.15625 6.109375 34.5625 8.28125 
Q 37.984375 10.453125 37.984375 14.40625 
Q 37.984375 18.0625 35.515625 20.015625 
Q 33.0625 21.96875 24.703125 23.78125 
L 21.578125 24.515625 
Q 13.234375 26.265625 9.515625 29.90625 
Q 5.8125 33.546875 5.8125 39.890625 
Q 5.8125 47.609375 11.28125 51.796875 
Q 16.75 56 26.8125 56 
Q 31.78125 56 36.171875 55.265625 
Q 40.578125 54.546875 44.28125 53.078125 
z
" id="DejaVuSans-115"/>
     </defs>
     <use xlink:href="#DejaVuSans-103"/>
     <use x="63.476562" xlink:href="#DejaVuSans-117"/>
     <use x="126.855469" xlink:href="#DejaVuSans-116"/>
     <use x="166.064453" xlink:href="#DejaVuSans-101"/>
     <use x="227.587891" xlink:href="#DejaVuSans-32"/>
     <use x="259.375" xlink:href="#DejaVuSans-69"/>
     <use x="322.558594" xlink:href="#DejaVuSans-105"/>
     <use x="350.341797" xlink:href="#DejaVuSans-110"/>
     <use x="413.720703" xlink:href="#DejaVuSans-115"/>
     <use x="465.820312" xlink:href="#DejaVuSans-116"/>
     <use x="505.029297" xlink:href="#DejaVuSans-101"/>
     <use x="566.552734" xlink:href="#DejaVuSans-108"/>
     <use x="594.335938" xlink:href="#DejaVuSans-108"/>
     <use x="622.119141" xlink:href="#DejaVuSans-117"/>
     <use x="685.498047" xlink:href="#DejaVuSans-110"/>
     <use x="748.876953" xlink:href="#DejaVuSans-103"/>
    </g>
   </g>
  </g>
  <g id="axes_3">
   <g id="patch_12">
    <path d="M 68.08 479.12 
L 378 479.12 
L 378 339.6 
L 68.08 339.6 
z
" style="fill:#ffffff;"/>
   </g>
   <g id="matplotlib.axis_5">
    <g id="text_7">
     <!-- Zeit -->
     <g transform="translate(213.189219 490.718437)scale(0.1 -0.1)">
      <use xlink:href="#DejaVuSans-90"/>
      <use x="68.505859" xlink:href="#DejaVuSans-101"/>
      <use x="130.029297" xlink:href="#DejaVuSans-105"/>
      <use x="157.8125" xlink:href="#DejaVuSans-116"/>
     </g>
    </g>
   </g>
   <g id="matplotlib.axis_6">
    <g id="text_8">
     <!-- Regelgröße -->
     <g transform="translate(62.000313 437.727969)rotate(-90)scale(0.1 -0.1)">
      <use xlink:href="#DejaVuSans-82"/>
      <use x="64.982422" xlink:href="#DejaVuSans-101"/>
      <use x="126.505859" xlink:href="#DejaVuSans-103"/>
      <use x="189.982422" xlink:href="#DejaVuSans-101"/>
      <use x="251.505859" xlink:href="#DejaVuSans-108"/>
      <use x="279.289062" xlink:href="#DejaVuSans-103"/>
      <use x="342.765625" xlink:href="#DejaVuSans-114"/>
      <use x="381.628906" xlink:href="#DejaVuSans-246"/>
      <use x="442.810547" xlink:href="#DejaVuSans-223"/>
      <use x="505.798828" xlink:href="#DejaVuSans-101"/>
     </g>
    </g>
   </g>
   <g id="line2d_5">
    <path clip-path="url(#p140c7b860a)" d="M 82.167273 401.608889 
L 363.912727 401.608889 
" style="fill:none;stroke:#1f77b4;stroke-linecap:square;stroke-width:1.5;"/>
   </g>
   <g id="line2d_6">
    <path clip-path="url(#p140c7b860a)" d="M 82.167273 479.12 
L 84.058182 479.027112 
L 85.949091 478.031261 
L 87.84 475.017211 
L 89.730909 469.339064 
L 91.621818 460.916722 
L 93.512727 450.115242 
L 95.403636 437.598217 
L 99.185455 410.820377 
L 101.076364 398.338918 
L 102.967273 387.544521 
L 104.858182 379.080822 
L 106.749091 373.40669 
L 108.64 370.772577 
L 110.530909 371.212763 
L 112.421818 374.552895 
L 114.312727 380.431403 
L 116.203636 388.332614 
L 118.094545 397.628728 
L 121.876364 417.621479 
L 123.767273 426.937316 
L 125.658182 434.978673 
L 127.549091 441.263254 
L 129.44 445.449876 
L 131.330909 447.354842 
L 133.221818 446.956925 
L 135.112727 444.391168 
L 137.003636 439.93243 
L 138.894545 433.970291 
L 140.785455 426.977388 
L 144.567273 411.989015 
L 146.458182 405.027231 
L 148.349091 399.033124 
L 150.24 394.365372 
L 152.130909 391.276369 
L 154.021818 389.900205 
L 155.912727 390.249179 
L 157.803636 392.218699 
L 159.694545 395.599821 
L 161.585455 400.098245 
L 163.476364 405.358165 
L 167.258182 416.594104 
L 169.149091 421.796335 
L 171.04 426.26401 
L 172.930909 429.730416 
L 174.821818 432.008884 
L 176.712727 433.001609 
L 178.603636 432.702075 
L 180.494545 431.191201 
L 182.385455 428.627778 
L 184.276364 425.234101 
L 186.167273 421.278001 
L 189.949091 412.855573 
L 191.84 408.968445 
L 193.730909 405.638781 
L 195.621818 403.064889 
L 197.512727 401.384796 
L 199.403636 400.669783 
L 201.294545 400.922709 
L 203.185455 402.081038 
L 205.076364 404.024126 
L 206.967273 406.584085 
L 210.749091 412.729729 
L 212.64 415.872363 
L 214.530909 418.776642 
L 216.421818 421.257947 
L 218.312727 423.168854 
L 220.203636 424.407324 
L 222.094545 424.921451 
L 223.985455 424.710607 
L 225.876364 423.823076 
L 227.767273 422.350495 
L 229.658182 420.419644 
L 233.44 415.803553 
L 235.330909 413.450594 
L 237.221818 411.280803 
L 239.112727 409.431872 
L 241.003636 408.013384 
L 242.894545 407.100755 
L 244.785455 406.731747 
L 246.676364 406.905697 
L 248.567273 407.585361 
L 250.458182 408.701151 
L 252.349091 410.157342 
L 256.130909 413.624325 
L 259.912727 417.006868 
L 261.803636 418.384464 
L 263.694545 419.437268 
L 265.585455 420.109556 
L 267.476364 420.373881 
L 269.367273 420.23159 
L 271.258182 419.711385 
L 273.149091 418.866098 
L 275.04 417.767998 
L 282.603636 412.634621 
L 284.494545 411.608301 
L 286.385455 410.827026 
L 288.276364 410.331959 
L 290.167273 410.143031 
L 292.058182 410.258594 
L 293.949091 410.656549 
L 295.84 411.296794 
L 297.730909 412.124776 
L 305.294545 415.971746 
L 307.185455 416.736292 
L 309.076364 417.315979 
L 310.967273 417.680409 
L 312.858182 417.815125 
L 314.749091 417.721839 
L 316.64 417.417554 
L 318.530909 416.932701 
L 322.312727 415.593458 
L 327.985455 413.4257 
L 329.876364 412.856214 
L 331.767273 412.426168 
L 333.658182 412.158004 
L 335.549091 412.062196 
L 337.44 412.137106 
L 339.330909 412.36966 
L 343.112727 413.207365 
L 352.567273 415.791597 
L 354.458182 416.110581 
L 356.349091 416.30783 
L 358.24 416.375768 
L 360.130909 416.315888 
L 363.912727 415.860321 
L 363.912727 415.860321 
" style="fill:none;stroke:#ff7f0e;stroke-linecap:square;stroke-width:1.5;"/>
   </g>
   <g id="patch_13">
    <path d="M 68.08 479.12 
L 68.08 339.6 
" style="fill:none;stroke:#000000;stroke-linecap:square;stroke-linejoin:miter;stroke-width:0.8;"/>
   </g>
   <g id="patch_14">
    <path d="M 378 479.12 
L 378 339.6 
" style="fill:none;stroke:#000000;stroke-linecap:square;stroke-linejoin:miter;stroke-width:0.8;"/>
   </g>
   <g id="patch_15">
    <path d="M 68.08 479.12 
L 378 479.12 
" style="fill:none;stroke:#000000;stroke-linecap:square;stroke-linejoin:miter;stroke-width:0.8;"/>
   </g>
   <g id="patch_16">
    <path d="M 68.08 339.6 
L 378 339.6 
" style="fill:none;stroke:#000000;stroke-linecap:square;stroke-linejoin:miter;stroke-width:0.8;"/>
   </g>
   <g id="text_9">
    <!-- $K_{\rm p}$ zu groß -->
    <g transform="translate(280.712727 366.135556)scale(0.1 -0.1)">
     <use transform="translate(0 0.015625)" xlink:href="#DejaVuSans-Oblique-75"/>
     <use transform="translate(65.576172 -16.390625)scale(0.7)" xlink:href="#DejaVuSans-112"/>
     <use transform="translate(112.744141 0.015625)" xlink:href="#DejaVuSans-32"/>
     <use transform="translate(144.53125 0.015625)" xlink:href="#DejaVuSans-122"/>
     <use transform="translate(197.021484 0.015625)" xlink:href="#DejaVuSans-117"/>
     <use transform="translate(260.400391 0.015625)" xlink:href="#DejaVuSans-32"/>
     <use transform="translate(292.1875 0.015625)" xlink:href="#DejaVuSans-103"/>
     <use transform="translate(355.664062 0.015625)" xlink:href="#DejaVuSans-114"/>
     <use transform="translate(396.777344 0.015625)" xlink:href="#DejaVuSans-111"/>
     <use transform="translate(457.958984 0.015625)" xlink:href="#DejaVuSans-223"/>
    </g>
    <!-- ($X_{\rm p}$ zu klein) -->
    <g transform="translate(280.712727 378.355556)scale(0.1 -0.1)">
     <use transform="translate(0 0.015625)" xlink:href="#DejaVuSans-40"/>
     <use transform="translate(39.013672 0.015625)" xlink:href="#DejaVuSans-Oblique-88"/>
     <use transform="translate(107.519531 -16.390625)scale(0.7)" xlink:href="#DejaVuSans-112"/>
     <use transform="translate(154.6875 0.015625)" xlink:href="#DejaVuSans-32"/>
     <use transform="translate(186.474609 0.015625)" xlink:href="#DejaVuSans-122"/>
     <use transform="translate(238.964844 0.015625)" xlink:href="#DejaVuSans-117"/>
     <use transform="translate(302.34375 0.015625)" xlink:href="#DejaVuSans-32"/>
     <use transform="translate(334.130859 0.015625)" xlink:href="#DejaVuSans-107"/>
     <use transform="translate(392.041016 0.015625)" xlink:href="#DejaVuSans-108"/>
     <use transform="translate(419.824219 0.015625)" xlink:href="#DejaVuSans-101"/>
     <use transform="translate(481.347656 0.015625)" xlink:href="#DejaVuSans-105"/>
     <use transform="translate(509.130859 0.015625)" xlink:href="#DejaVuSans-110"/>
     <use transform="translate(572.509766 0.015625)" xlink:href="#DejaVuSans-41"/>
    </g>
   </g>
  </g>
 </g>
 <defs>
  <clipPath id="p83dcacaca2">
   <rect height="139.52" width="309.92" x="68.08" y="10.8"/>
  </clipPath>
  <clipPath id="p4f45c00bb7">
   <rect height="139.52" width="309.92" x="68.08" y="175.2"/>
  </clipPath>
  <clipPath id="p140c7b860a">
   <rect height="139.52" width="309.92" x="68.08" y="339.6"/>
  </clipPath>
 </defs>
</svg>
