<?xml version="1.0" encoding="utf-8" standalone="no"?>
<!DOCTYPE svg PUBLIC "-//W3C//DTD SVG 1.1//EN"
  "http://www.w3.org/Graphics/SVG/1.1/DTD/svg11.dtd">
<!-- Created with matplotlib (https://matplotlib.org/) -->
<svg height="504pt" version="1.1" viewBox="0 0 432 504" width="432pt" xmlns="http://www.w3.org/2000/svg" xmlns:xlink="http://www.w3.org/1999/xlink">
 <metadata>
  <rdf:RDF xmlns:cc="http://creativecommons.org/ns#" xmlns:dc="http://purl.org/dc/elements/1.1/" xmlns:rdf="http://www.w3.org/1999/02/22-rdf-syntax-ns#">
   <cc:Work>
    <dc:type rdf:resource="http://purl.org/dc/dcmitype/StillImage"/>
    <dc:date>2021-03-15T15:28:23.089629</dc:date>
    <dc:format>image/svg+xml</dc:format>
    <dc:creator>
     <cc:Agent>
      <dc:title>Matplotlib v3.3.2, https://matplotlib.org/</dc:title>
     </cc:Agent>
    </dc:creator>
   </cc:Work>
  </rdf:RDF>
 </metadata>
 <defs>
  <style type="text/css">*{stroke-linecap:butt;stroke-linejoin:round;}</style>
 </defs>
 <g id="figure_1">
  <g id="patch_1">
   <path d="M 0 504 
L 432 504 
L 432 0 
L 0 0 
z
" style="fill:#ffffff;"/>
  </g>
  <g id="axes_1">
   <g id="patch_2">
    <path d="M 68.08 150.32 
L 378 150.32 
L 378 10.8 
L 68.08 10.8 
z
" style="fill:#ffffff;"/>
   </g>
   <g id="matplotlib.axis_1">
    <g id="text_1">
     <!-- Zeit -->
     <g transform="translate(213.189219 161.918437)scale(0.1 -0.1)">
      <defs>
       <path d="M 5.609375 72.90625 
L 62.890625 72.90625 
L 62.890625 65.375 
L 16.796875 8.296875 
L 64.015625 8.296875 
L 64.015625 0 
L 4.5 0 
L 4.5 7.515625 
L 50.59375 64.59375 
L 5.609375 64.59375 
z
" id="DejaVuSans-90"/>
       <path d="M 56.203125 29.59375 
L 56.203125 25.203125 
L 14.890625 25.203125 
Q 15.484375 15.921875 20.484375 11.0625 
Q 25.484375 6.203125 34.421875 6.203125 
Q 39.59375 6.203125 44.453125 7.46875 
Q 49.3125 8.734375 54.109375 11.28125 
L 54.109375 2.78125 
Q 49.265625 0.734375 44.1875 -0.34375 
Q 39.109375 -1.421875 33.890625 -1.421875 
Q 20.796875 -1.421875 13.15625 6.1875 
Q 5.515625 13.8125 5.515625 26.8125 
Q 5.515625 40.234375 12.765625 48.109375 
Q 20.015625 56 32.328125 56 
Q 43.359375 56 49.78125 48.890625 
Q 56.203125 41.796875 56.203125 29.59375 
z
M 47.21875 32.234375 
Q 47.125 39.59375 43.09375 43.984375 
Q 39.0625 48.390625 32.421875 48.390625 
Q 24.90625 48.390625 20.390625 44.140625 
Q 15.875 39.890625 15.1875 32.171875 
z
" id="DejaVuSans-101"/>
       <path d="M 9.421875 54.6875 
L 18.40625 54.6875 
L 18.40625 0 
L 9.421875 0 
z
M 9.421875 75.984375 
L 18.40625 75.984375 
L 18.40625 64.59375 
L 9.421875 64.59375 
z
" id="DejaVuSans-105"/>
       <path d="M 18.3125 70.21875 
L 18.3125 54.6875 
L 36.8125 54.6875 
L 36.8125 47.703125 
L 18.3125 47.703125 
L 18.3125 18.015625 
Q 18.3125 11.328125 20.140625 9.421875 
Q 21.96875 7.515625 27.59375 7.515625 
L 36.8125 7.515625 
L 36.8125 0 
L 27.59375 0 
Q 17.1875 0 13.234375 3.875 
Q 9.28125 7.765625 9.28125 18.015625 
L 9.28125 47.703125 
L 2.6875 47.703125 
L 2.6875 54.6875 
L 9.28125 54.6875 
L 9.28125 70.21875 
z
" id="DejaVuSans-116"/>
      </defs>
      <use xlink:href="#DejaVuSans-90"/>
      <use x="68.505859" xlink:href="#DejaVuSans-101"/>
      <use x="130.029297" xlink:href="#DejaVuSans-105"/>
      <use x="157.8125" xlink:href="#DejaVuSans-116"/>
     </g>
    </g>
   </g>
   <g id="matplotlib.axis_2">
    <g id="text_2">
     <!-- Regelgröße -->
     <g transform="translate(62.000313 108.927969)rotate(-90)scale(0.1 -0.1)">
      <defs>
       <path d="M 44.390625 34.1875 
Q 47.5625 33.109375 50.5625 29.59375 
Q 53.5625 26.078125 56.59375 19.921875 
L 66.609375 0 
L 56 0 
L 46.6875 18.703125 
Q 43.0625 26.03125 39.671875 28.421875 
Q 36.28125 30.8125 30.421875 30.8125 
L 19.671875 30.8125 
L 19.671875 0 
L 9.8125 0 
L 9.8125 72.90625 
L 32.078125 72.90625 
Q 44.578125 72.90625 50.734375 67.671875 
Q 56.890625 62.453125 56.890625 51.90625 
Q 56.890625 45.015625 53.6875 40.46875 
Q 50.484375 35.9375 44.390625 34.1875 
z
M 19.671875 64.796875 
L 19.671875 38.921875 
L 32.078125 38.921875 
Q 39.203125 38.921875 42.84375 42.21875 
Q 46.484375 45.515625 46.484375 51.90625 
Q 46.484375 58.296875 42.84375 61.546875 
Q 39.203125 64.796875 32.078125 64.796875 
z
" id="DejaVuSans-82"/>
       <path d="M 45.40625 27.984375 
Q 45.40625 37.75 41.375 43.109375 
Q 37.359375 48.484375 30.078125 48.484375 
Q 22.859375 48.484375 18.828125 43.109375 
Q 14.796875 37.75 14.796875 27.984375 
Q 14.796875 18.265625 18.828125 12.890625 
Q 22.859375 7.515625 30.078125 7.515625 
Q 37.359375 7.515625 41.375 12.890625 
Q 45.40625 18.265625 45.40625 27.984375 
z
M 54.390625 6.78125 
Q 54.390625 -7.171875 48.1875 -13.984375 
Q 42 -20.796875 29.203125 -20.796875 
Q 24.46875 -20.796875 20.265625 -20.09375 
Q 16.0625 -19.390625 12.109375 -17.921875 
L 12.109375 -9.1875 
Q 16.0625 -11.328125 19.921875 -12.34375 
Q 23.78125 -13.375 27.78125 -13.375 
Q 36.625 -13.375 41.015625 -8.765625 
Q 45.40625 -4.15625 45.40625 5.171875 
L 45.40625 9.625 
Q 42.625 4.78125 38.28125 2.390625 
Q 33.9375 0 27.875 0 
Q 17.828125 0 11.671875 7.65625 
Q 5.515625 15.328125 5.515625 27.984375 
Q 5.515625 40.671875 11.671875 48.328125 
Q 17.828125 56 27.875 56 
Q 33.9375 56 38.28125 53.609375 
Q 42.625 51.21875 45.40625 46.390625 
L 45.40625 54.6875 
L 54.390625 54.6875 
z
" id="DejaVuSans-103"/>
       <path d="M 9.421875 75.984375 
L 18.40625 75.984375 
L 18.40625 0 
L 9.421875 0 
z
" id="DejaVuSans-108"/>
       <path d="M 41.109375 46.296875 
Q 39.59375 47.171875 37.8125 47.578125 
Q 36.03125 48 33.890625 48 
Q 26.265625 48 22.1875 43.046875 
Q 18.109375 38.09375 18.109375 28.8125 
L 18.109375 0 
L 9.078125 0 
L 9.078125 54.6875 
L 18.109375 54.6875 
L 18.109375 46.1875 
Q 20.953125 51.171875 25.484375 53.578125 
Q 30.03125 56 36.53125 56 
Q 37.453125 56 38.578125 55.875 
Q 39.703125 55.765625 41.0625 55.515625 
z
" id="DejaVuSans-114"/>
       <path d="M 30.609375 48.390625 
Q 23.390625 48.390625 19.1875 42.75 
Q 14.984375 37.109375 14.984375 27.296875 
Q 14.984375 17.484375 19.15625 11.84375 
Q 23.34375 6.203125 30.609375 6.203125 
Q 37.796875 6.203125 41.984375 11.859375 
Q 46.1875 17.53125 46.1875 27.296875 
Q 46.1875 37.015625 41.984375 42.703125 
Q 37.796875 48.390625 30.609375 48.390625 
z
M 30.609375 56 
Q 42.328125 56 49.015625 48.375 
Q 55.71875 40.765625 55.71875 27.296875 
Q 55.71875 13.875 49.015625 6.21875 
Q 42.328125 -1.421875 30.609375 -1.421875 
Q 18.84375 -1.421875 12.171875 6.21875 
Q 5.515625 13.875 5.515625 27.296875 
Q 5.515625 40.765625 12.171875 48.375 
Q 18.84375 56 30.609375 56 
z
M 35.203125 75.78125 
L 45.125 75.78125 
L 45.125 65.921875 
L 35.203125 65.921875 
z
M 16.109375 75.78125 
L 26.03125 75.78125 
L 26.03125 65.921875 
L 16.109375 65.921875 
z
" id="DejaVuSans-246"/>
       <path d="M 9.078125 55.515625 
Q 9.078125 65.28125 14.90625 70.625 
Q 20.75 75.984375 31.390625 75.984375 
Q 41.546875 75.984375 46.890625 70.3125 
Q 52.25 64.65625 52.390625 53.71875 
Q 45.015625 53.328125 40.90625 50.515625 
Q 36.8125 47.703125 36.8125 43.015625 
Q 36.8125 40.71875 38.234375 38.734375 
Q 39.65625 36.765625 42.828125 34.71875 
L 45.609375 32.90625 
Q 53.71875 27.734375 56.0625 24.265625 
Q 58.40625 20.796875 58.40625 15.921875 
Q 58.40625 7.515625 52.90625 3.046875 
Q 47.40625 -1.421875 37.109375 -1.421875 
Q 33.984375 -1.421875 30.65625 -0.8125 
Q 27.34375 -0.203125 23.78125 0.984375 
L 23.78125 8.984375 
Q 27.6875 7.515625 31.09375 6.8125 
Q 34.515625 6.109375 37.703125 6.109375 
Q 43.359375 6.109375 46.28125 8.421875 
Q 49.21875 10.75 49.21875 15.1875 
Q 49.21875 18.265625 47.78125 20.3125 
Q 46.34375 22.359375 41.40625 25.390625 
L 36.921875 28.078125 
Q 32.234375 30.953125 30.109375 34.25 
Q 27.984375 37.546875 27.984375 42 
Q 27.984375 48.1875 32.0625 52.390625 
Q 36.140625 56.59375 43.5 58.015625 
Q 43.109375 63.03125 39.90625 65.765625 
Q 36.71875 68.5 31.203125 68.5 
Q 24.859375 68.5 21.53125 65.109375 
Q 18.21875 61.71875 18.21875 55.328125 
L 18.21875 0 
L 9.078125 0 
z
" id="DejaVuSans-223"/>
      </defs>
      <use xlink:href="#DejaVuSans-82"/>
      <use x="64.982422" xlink:href="#DejaVuSans-101"/>
      <use x="126.505859" xlink:href="#DejaVuSans-103"/>
      <use x="189.982422" xlink:href="#DejaVuSans-101"/>
      <use x="251.505859" xlink:href="#DejaVuSans-108"/>
      <use x="279.289062" xlink:href="#DejaVuSans-103"/>
      <use x="342.765625" xlink:href="#DejaVuSans-114"/>
      <use x="381.628906" xlink:href="#DejaVuSans-246"/>
      <use x="442.810547" xlink:href="#DejaVuSans-223"/>
      <use x="505.798828" xlink:href="#DejaVuSans-101"/>
     </g>
    </g>
   </g>
   <g id="line2d_1">
    <path clip-path="url(#p67a7a15194)" d="M 82.167273 72.808889 
L 363.912727 72.808889 
" style="fill:none;stroke:#1f77b4;stroke-linecap:square;stroke-width:1.5;"/>
   </g>
   <g id="line2d_2">
    <path clip-path="url(#p67a7a15194)" d="M 82.167273 150.32 
L 84.058182 150.28274 
L 85.949091 149.88183 
L 87.84 148.661899 
L 89.730909 146.344777 
L 91.621818 142.863803 
L 93.512727 138.311631 
L 95.403636 132.880735 
L 99.185455 120.380768 
L 102.967273 107.412691 
L 104.858182 101.325926 
L 106.749091 95.744889 
L 108.64 90.801978 
L 110.530909 86.589867 
L 112.421818 83.162805 
L 114.312727 80.539336 
L 116.203636 78.706087 
L 118.094545 77.622305 
L 119.985455 77.224845 
L 121.876364 77.433369 
L 123.767273 78.155515 
L 125.658182 79.291857 
L 127.549091 80.74049 
L 131.330909 84.178538 
L 135.112727 87.745117 
L 137.003636 89.39192 
L 138.894545 90.873272 
L 140.785455 92.14944 
L 142.676364 93.193452 
L 144.567273 93.990451 
L 146.458182 94.53669 
L 148.349091 94.838239 
L 150.24 94.909499 
L 152.130909 94.7716 
L 154.021818 94.450748 
L 155.912727 93.976607 
L 159.694545 92.695264 
L 171.04 88.284546 
L 174.821818 87.188447 
L 178.603636 86.409654 
L 182.385455 85.940888 
L 186.167273 85.734804 
L 191.84 85.759577 
L 205.076364 86.100063 
L 210.749091 85.990824 
L 216.421818 85.680972 
L 225.876364 84.888673 
L 239.112727 83.778456 
L 248.567273 83.217486 
L 265.585455 82.507098 
L 292.058182 81.33098 
L 316.64 80.322834 
L 356.349091 78.987554 
L 363.912727 78.757451 
L 363.912727 78.757451 
" style="fill:none;stroke:#ff7f0e;stroke-linecap:square;stroke-width:1.5;"/>
   </g>
   <g id="patch_3">
    <path d="M 68.08 150.32 
L 68.08 10.8 
" style="fill:none;stroke:#000000;stroke-linecap:square;stroke-linejoin:miter;stroke-width:0.8;"/>
   </g>
   <g id="patch_4">
    <path d="M 378 150.32 
L 378 10.8 
" style="fill:none;stroke:#000000;stroke-linecap:square;stroke-linejoin:miter;stroke-width:0.8;"/>
   </g>
   <g id="patch_5">
    <path d="M 68.08 150.32 
L 378 150.32 
" style="fill:none;stroke:#000000;stroke-linecap:square;stroke-linejoin:miter;stroke-width:0.8;"/>
   </g>
   <g id="patch_6">
    <path d="M 68.08 10.8 
L 378 10.8 
" style="fill:none;stroke:#000000;stroke-linecap:square;stroke-linejoin:miter;stroke-width:0.8;"/>
   </g>
   <g id="text_3">
    <!-- $T_{\rm N}$ zu groß -->
    <g transform="translate(280.712727 49.555556)scale(0.1 -0.1)">
     <defs>
      <path d="M 5.90625 72.90625 
L 67.578125 72.90625 
L 66.015625 64.59375 
L 39.984375 64.59375 
L 27.484375 0 
L 17.578125 0 
L 30.078125 64.59375 
L 4.296875 64.59375 
z
" id="DejaVuSans-Oblique-84"/>
      <path d="M 9.8125 72.90625 
L 23.09375 72.90625 
L 55.421875 11.921875 
L 55.421875 72.90625 
L 64.984375 72.90625 
L 64.984375 0 
L 51.703125 0 
L 19.390625 60.984375 
L 19.390625 0 
L 9.8125 0 
z
" id="DejaVuSans-78"/>
      <path id="DejaVuSans-32"/>
      <path d="M 5.515625 54.6875 
L 48.1875 54.6875 
L 48.1875 46.484375 
L 14.40625 7.171875 
L 48.1875 7.171875 
L 48.1875 0 
L 4.296875 0 
L 4.296875 8.203125 
L 38.09375 47.515625 
L 5.515625 47.515625 
z
" id="DejaVuSans-122"/>
      <path d="M 8.5 21.578125 
L 8.5 54.6875 
L 17.484375 54.6875 
L 17.484375 21.921875 
Q 17.484375 14.15625 20.5 10.265625 
Q 23.53125 6.390625 29.59375 6.390625 
Q 36.859375 6.390625 41.078125 11.03125 
Q 45.3125 15.671875 45.3125 23.6875 
L 45.3125 54.6875 
L 54.296875 54.6875 
L 54.296875 0 
L 45.3125 0 
L 45.3125 8.40625 
Q 42.046875 3.421875 37.71875 1 
Q 33.40625 -1.421875 27.6875 -1.421875 
Q 18.265625 -1.421875 13.375 4.4375 
Q 8.5 10.296875 8.5 21.578125 
z
M 31.109375 56 
z
" id="DejaVuSans-117"/>
      <path d="M 30.609375 48.390625 
Q 23.390625 48.390625 19.1875 42.75 
Q 14.984375 37.109375 14.984375 27.296875 
Q 14.984375 17.484375 19.15625 11.84375 
Q 23.34375 6.203125 30.609375 6.203125 
Q 37.796875 6.203125 41.984375 11.859375 
Q 46.1875 17.53125 46.1875 27.296875 
Q 46.1875 37.015625 41.984375 42.703125 
Q 37.796875 48.390625 30.609375 48.390625 
z
M 30.609375 56 
Q 42.328125 56 49.015625 48.375 
Q 55.71875 40.765625 55.71875 27.296875 
Q 55.71875 13.875 49.015625 6.21875 
Q 42.328125 -1.421875 30.609375 -1.421875 
Q 18.84375 -1.421875 12.171875 6.21875 
Q 5.515625 13.875 5.515625 27.296875 
Q 5.515625 40.765625 12.171875 48.375 
Q 18.84375 56 30.609375 56 
z
" id="DejaVuSans-111"/>
     </defs>
     <use transform="translate(0 0.015625)" xlink:href="#DejaVuSans-Oblique-84"/>
     <use transform="translate(61.083984 -16.390625)scale(0.7)" xlink:href="#DejaVuSans-78"/>
     <use transform="translate(116.181641 0.015625)" xlink:href="#DejaVuSans-32"/>
     <use transform="translate(147.96875 0.015625)" xlink:href="#DejaVuSans-122"/>
     <use transform="translate(200.458984 0.015625)" xlink:href="#DejaVuSans-117"/>
     <use transform="translate(263.837891 0.015625)" xlink:href="#DejaVuSans-32"/>
     <use transform="translate(295.625 0.015625)" xlink:href="#DejaVuSans-103"/>
     <use transform="translate(359.101562 0.015625)" xlink:href="#DejaVuSans-114"/>
     <use transform="translate(400.214844 0.015625)" xlink:href="#DejaVuSans-111"/>
     <use transform="translate(461.396484 0.015625)" xlink:href="#DejaVuSans-223"/>
    </g>
   </g>
  </g>
  <g id="axes_2">
   <g id="patch_7">
    <path d="M 68.08 314.72 
L 378 314.72 
L 378 175.2 
L 68.08 175.2 
z
" style="fill:#ffffff;"/>
   </g>
   <g id="matplotlib.axis_3">
    <g id="text_4">
     <!-- Zeit -->
     <g transform="translate(213.189219 326.318437)scale(0.1 -0.1)">
      <use xlink:href="#DejaVuSans-90"/>
      <use x="68.505859" xlink:href="#DejaVuSans-101"/>
      <use x="130.029297" xlink:href="#DejaVuSans-105"/>
      <use x="157.8125" xlink:href="#DejaVuSans-116"/>
     </g>
    </g>
   </g>
   <g id="matplotlib.axis_4">
    <g id="text_5">
     <!-- Regelgröße -->
     <g transform="translate(62.000313 273.327969)rotate(-90)scale(0.1 -0.1)">
      <use xlink:href="#DejaVuSans-82"/>
      <use x="64.982422" xlink:href="#DejaVuSans-101"/>
      <use x="126.505859" xlink:href="#DejaVuSans-103"/>
      <use x="189.982422" xlink:href="#DejaVuSans-101"/>
      <use x="251.505859" xlink:href="#DejaVuSans-108"/>
      <use x="279.289062" xlink:href="#DejaVuSans-103"/>
      <use x="342.765625" xlink:href="#DejaVuSans-114"/>
      <use x="381.628906" xlink:href="#DejaVuSans-246"/>
      <use x="442.810547" xlink:href="#DejaVuSans-223"/>
      <use x="505.798828" xlink:href="#DejaVuSans-101"/>
     </g>
    </g>
   </g>
   <g id="line2d_3">
    <path clip-path="url(#p87dbabfa4c)" d="M 82.167273 237.208889 
L 363.912727 237.208889 
" style="fill:none;stroke:#1f77b4;stroke-linecap:square;stroke-width:1.5;"/>
   </g>
   <g id="line2d_4">
    <path clip-path="url(#p87dbabfa4c)" d="M 82.167273 314.72 
L 84.058182 314.682452 
L 85.949091 314.274725 
L 87.84 313.019711 
L 89.730909 310.604134 
L 91.621818 306.920849 
L 93.512727 302.023989 
L 95.403636 296.074722 
L 97.294545 289.297107 
L 101.076364 274.283378 
L 104.858182 259.022448 
L 106.749091 251.866278 
L 108.64 245.270744 
L 110.530909 239.37588 
L 112.421818 234.285321 
L 114.312727 230.066599 
L 116.203636 226.752663 
L 118.094545 224.344407 
L 119.985455 222.813991 
L 121.876364 222.108747 
L 123.767273 222.155477 
L 125.658182 222.864965 
L 127.549091 224.136519 
L 129.44 225.862413 
L 131.330909 227.932068 
L 135.112727 232.668716 
L 138.894545 237.539334 
L 140.785455 239.81207 
L 142.676364 241.886698 
L 144.567273 243.712482 
L 146.458182 245.252271 
L 148.349091 246.482241 
L 150.24 247.391239 
L 152.130909 247.979782 
L 154.021818 248.258798 
L 155.912727 248.248163 
L 157.803636 247.975101 
L 159.694545 247.472529 
L 161.585455 246.777388 
L 165.367273 244.96765 
L 176.712727 238.876266 
L 180.494545 237.390036 
L 182.385455 236.822804 
L 184.276364 236.378786 
L 186.167273 236.057082 
L 189.949091 235.758836 
L 193.730909 235.856027 
L 197.512727 236.244559 
L 203.185455 237.117711 
L 210.749091 238.271767 
L 214.530909 238.675593 
L 218.312727 238.914811 
L 222.094545 238.986204 
L 227.767273 238.822834 
L 235.330909 238.293636 
L 246.676364 237.469527 
L 254.24 237.18799 
L 261.803636 237.151796 
L 276.930909 237.41224 
L 290.167273 237.511793 
L 307.185455 237.353013 
L 327.985455 237.22797 
L 363.912727 237.257302 
L 363.912727 237.257302 
" style="fill:none;stroke:#ff7f0e;stroke-linecap:square;stroke-width:1.5;"/>
   </g>
   <g id="patch_8">
    <path d="M 68.08 314.72 
L 68.08 175.2 
" style="fill:none;stroke:#000000;stroke-linecap:square;stroke-linejoin:miter;stroke-width:0.8;"/>
   </g>
   <g id="patch_9">
    <path d="M 378 314.72 
L 378 175.2 
" style="fill:none;stroke:#000000;stroke-linecap:square;stroke-linejoin:miter;stroke-width:0.8;"/>
   </g>
   <g id="patch_10">
    <path d="M 68.08 314.72 
L 378 314.72 
" style="fill:none;stroke:#000000;stroke-linecap:square;stroke-linejoin:miter;stroke-width:0.8;"/>
   </g>
   <g id="patch_11">
    <path d="M 68.08 175.2 
L 378 175.2 
" style="fill:none;stroke:#000000;stroke-linecap:square;stroke-linejoin:miter;stroke-width:0.8;"/>
   </g>
   <g id="text_6">
    <!-- gute Einstellung -->
    <g transform="translate(280.712727 213.955556)scale(0.1 -0.1)">
     <defs>
      <path d="M 9.8125 72.90625 
L 55.90625 72.90625 
L 55.90625 64.59375 
L 19.671875 64.59375 
L 19.671875 43.015625 
L 54.390625 43.015625 
L 54.390625 34.71875 
L 19.671875 34.71875 
L 19.671875 8.296875 
L 56.78125 8.296875 
L 56.78125 0 
L 9.8125 0 
z
" id="DejaVuSans-69"/>
      <path d="M 54.890625 33.015625 
L 54.890625 0 
L 45.90625 0 
L 45.90625 32.71875 
Q 45.90625 40.484375 42.875 44.328125 
Q 39.84375 48.1875 33.796875 48.1875 
Q 26.515625 48.1875 22.3125 43.546875 
Q 18.109375 38.921875 18.109375 30.90625 
L 18.109375 0 
L 9.078125 0 
L 9.078125 54.6875 
L 18.109375 54.6875 
L 18.109375 46.1875 
Q 21.34375 51.125 25.703125 53.5625 
Q 30.078125 56 35.796875 56 
Q 45.21875 56 50.046875 50.171875 
Q 54.890625 44.34375 54.890625 33.015625 
z
" id="DejaVuSans-110"/>
      <path d="M 44.28125 53.078125 
L 44.28125 44.578125 
Q 40.484375 46.53125 36.375 47.5 
Q 32.28125 48.484375 27.875 48.484375 
Q 21.1875 48.484375 17.84375 46.4375 
Q 14.5 44.390625 14.5 40.28125 
Q 14.5 37.15625 16.890625 35.375 
Q 19.28125 33.59375 26.515625 31.984375 
L 29.59375 31.296875 
Q 39.15625 29.25 43.1875 25.515625 
Q 47.21875 21.78125 47.21875 15.09375 
Q 47.21875 7.46875 41.1875 3.015625 
Q 35.15625 -1.421875 24.609375 -1.421875 
Q 20.21875 -1.421875 15.453125 -0.5625 
Q 10.6875 0.296875 5.421875 2 
L 5.421875 11.28125 
Q 10.40625 8.6875 15.234375 7.390625 
Q 20.0625 6.109375 24.8125 6.109375 
Q 31.15625 6.109375 34.5625 8.28125 
Q 37.984375 10.453125 37.984375 14.40625 
Q 37.984375 18.0625 35.515625 20.015625 
Q 33.0625 21.96875 24.703125 23.78125 
L 21.578125 24.515625 
Q 13.234375 26.265625 9.515625 29.90625 
Q 5.8125 33.546875 5.8125 39.890625 
Q 5.8125 47.609375 11.28125 51.796875 
Q 16.75 56 26.8125 56 
Q 31.78125 56 36.171875 55.265625 
Q 40.578125 54.546875 44.28125 53.078125 
z
" id="DejaVuSans-115"/>
     </defs>
     <use xlink:href="#DejaVuSans-103"/>
     <use x="63.476562" xlink:href="#DejaVuSans-117"/>
     <use x="126.855469" xlink:href="#DejaVuSans-116"/>
     <use x="166.064453" xlink:href="#DejaVuSans-101"/>
     <use x="227.587891" xlink:href="#DejaVuSans-32"/>
     <use x="259.375" xlink:href="#DejaVuSans-69"/>
     <use x="322.558594" xlink:href="#DejaVuSans-105"/>
     <use x="350.341797" xlink:href="#DejaVuSans-110"/>
     <use x="413.720703" xlink:href="#DejaVuSans-115"/>
     <use x="465.820312" xlink:href="#DejaVuSans-116"/>
     <use x="505.029297" xlink:href="#DejaVuSans-101"/>
     <use x="566.552734" xlink:href="#DejaVuSans-108"/>
     <use x="594.335938" xlink:href="#DejaVuSans-108"/>
     <use x="622.119141" xlink:href="#DejaVuSans-117"/>
     <use x="685.498047" xlink:href="#DejaVuSans-110"/>
     <use x="748.876953" xlink:href="#DejaVuSans-103"/>
    </g>
   </g>
  </g>
  <g id="axes_3">
   <g id="patch_12">
    <path d="M 68.08 479.12 
L 378 479.12 
L 378 339.6 
L 68.08 339.6 
z
" style="fill:#ffffff;"/>
   </g>
   <g id="matplotlib.axis_5">
    <g id="text_7">
     <!-- Zeit -->
     <g transform="translate(213.189219 490.718437)scale(0.1 -0.1)">
      <use xlink:href="#DejaVuSans-90"/>
      <use x="68.505859" xlink:href="#DejaVuSans-101"/>
      <use x="130.029297" xlink:href="#DejaVuSans-105"/>
      <use x="157.8125" xlink:href="#DejaVuSans-116"/>
     </g>
    </g>
   </g>
   <g id="matplotlib.axis_6">
    <g id="text_8">
     <!-- Regelgröße -->
     <g transform="translate(62.000313 437.727969)rotate(-90)scale(0.1 -0.1)">
      <use xlink:href="#DejaVuSans-82"/>
      <use x="64.982422" xlink:href="#DejaVuSans-101"/>
      <use x="126.505859" xlink:href="#DejaVuSans-103"/>
      <use x="189.982422" xlink:href="#DejaVuSans-101"/>
      <use x="251.505859" xlink:href="#DejaVuSans-108"/>
      <use x="279.289062" xlink:href="#DejaVuSans-103"/>
      <use x="342.765625" xlink:href="#DejaVuSans-114"/>
      <use x="381.628906" xlink:href="#DejaVuSans-246"/>
      <use x="442.810547" xlink:href="#DejaVuSans-223"/>
      <use x="505.798828" xlink:href="#DejaVuSans-101"/>
     </g>
    </g>
   </g>
   <g id="line2d_5">
    <path clip-path="url(#p0e2808d5ed)" d="M 82.167273 401.608889 
L 363.912727 401.608889 
" style="fill:none;stroke:#1f77b4;stroke-linecap:square;stroke-width:1.5;"/>
   </g>
   <g id="line2d_6">
    <path clip-path="url(#p0e2808d5ed)" d="M 82.167273 479.12 
L 84.058182 479.081723 
L 85.949091 478.656731 
L 87.84 477.312873 
L 89.730909 474.647984 
L 91.621818 470.452485 
L 93.512727 464.683291 
L 95.403636 457.423185 
L 97.294545 448.845438 
L 99.185455 439.186437 
L 102.967273 417.764486 
L 106.749091 395.612536 
L 108.64 385.042787 
L 110.530909 375.198852 
L 112.421818 366.33967 
L 114.312727 358.689914 
L 116.203636 352.434442 
L 118.094545 347.714071 
L 119.985455 344.622738 
L 121.876364 343.206064 
L 123.767273 343.46133 
L 125.658182 345.338815 
L 127.549091 348.744419 
L 129.44 353.543462 
L 131.330909 359.565536 
L 133.221818 366.610219 
L 135.112727 374.453496 
L 138.894545 391.563543 
L 142.676364 408.899823 
L 144.567273 417.04412 
L 146.458182 424.543061 
L 148.349091 431.202818 
L 150.24 436.858137 
L 152.130909 441.376241 
L 154.021818 444.659727 
L 155.912727 446.648384 
L 157.803636 447.319925 
L 159.694545 446.689631 
L 161.585455 444.808953 
L 163.476364 441.763129 
L 165.367273 437.667919 
L 167.258182 432.665558 
L 169.149091 426.920082 
L 172.930909 413.933547 
L 178.603636 393.639272 
L 180.494545 387.42057 
L 182.385455 381.76137 
L 184.276364 376.806177 
L 186.167273 372.675975 
L 188.058182 369.46544 
L 189.949091 367.240962 
L 191.84 366.03951 
L 193.730909 365.868359 
L 195.621818 366.705648 
L 197.512727 368.501754 
L 199.403636 371.181404 
L 201.294545 374.64645 
L 203.185455 378.779224 
L 205.076364 383.446343 
L 208.858182 393.796667 
L 212.64 404.478369 
L 214.530909 409.565898 
L 216.421818 414.298197 
L 218.312727 418.551523 
L 220.203636 422.218788 
L 222.094545 425.212143 
L 223.985455 427.464943 
L 225.876364 428.933072 
L 227.767273 429.595599 
L 229.658182 429.454767 
L 231.549091 428.535327 
L 233.44 426.883264 
L 235.330909 424.563952 
L 237.221818 421.65982 
L 239.112727 418.267588 
L 241.003636 414.495188 
L 244.785455 406.277573 
L 248.567273 397.965752 
L 250.458182 394.066405 
L 252.349091 390.479881 
L 254.24 387.298835 
L 256.130909 384.602135 
L 258.021818 382.452998 
L 259.912727 380.897624 
L 261.803636 379.964337 
L 263.694545 379.663252 
L 265.585455 379.986462 
L 267.476364 380.908727 
L 269.367273 382.388631 
L 271.258182 384.370165 
L 273.149091 386.784679 
L 275.04 389.553136 
L 278.821818 395.798889 
L 284.494545 405.535257 
L 286.385455 408.512856 
L 288.276364 411.21943 
L 290.167273 413.58596 
L 292.058182 415.554768 
L 293.949091 417.080841 
L 295.84 418.132769 
L 297.730909 418.693275 
L 299.621818 418.759334 
L 301.512727 418.341889 
L 303.403636 417.465184 
L 305.294545 416.165735 
L 307.185455 414.490989 
L 309.076364 412.49771 
L 310.967273 410.250137 
L 314.749091 405.274381 
L 320.421818 397.711693 
L 322.312727 395.446733 
L 324.203636 393.413512 
L 326.094545 391.663148 
L 327.985455 390.237493 
L 329.876364 389.168189 
L 331.767273 388.476052 
L 333.658182 388.170761 
L 335.549091 388.25088 
L 337.44 388.70418 
L 339.330909 389.508268 
L 341.221818 390.631475 
L 343.112727 392.033985 
L 345.003636 393.669171 
L 348.785455 397.425998 
L 354.458182 403.420987 
L 358.24 407.004496 
L 360.130909 408.5244 
L 362.021818 409.810688 
L 363.912727 410.833273 
L 363.912727 410.833273 
" style="fill:none;stroke:#ff7f0e;stroke-linecap:square;stroke-width:1.5;"/>
   </g>
   <g id="patch_13">
    <path d="M 68.08 479.12 
L 68.08 339.6 
" style="fill:none;stroke:#000000;stroke-linecap:square;stroke-linejoin:miter;stroke-width:0.8;"/>
   </g>
   <g id="patch_14">
    <path d="M 378 479.12 
L 378 339.6 
" style="fill:none;stroke:#000000;stroke-linecap:square;stroke-linejoin:miter;stroke-width:0.8;"/>
   </g>
   <g id="patch_15">
    <path d="M 68.08 479.12 
L 378 479.12 
" style="fill:none;stroke:#000000;stroke-linecap:square;stroke-linejoin:miter;stroke-width:0.8;"/>
   </g>
   <g id="patch_16">
    <path d="M 68.08 339.6 
L 378 339.6 
" style="fill:none;stroke:#000000;stroke-linecap:square;stroke-linejoin:miter;stroke-width:0.8;"/>
   </g>
   <g id="text_9">
    <!-- $T_{\rm N}$ zu klein -->
    <g transform="translate(280.712727 378.355556)scale(0.1 -0.1)">
     <defs>
      <path d="M 9.078125 75.984375 
L 18.109375 75.984375 
L 18.109375 31.109375 
L 44.921875 54.6875 
L 56.390625 54.6875 
L 27.390625 29.109375 
L 57.625 0 
L 45.90625 0 
L 18.109375 26.703125 
L 18.109375 0 
L 9.078125 0 
z
" id="DejaVuSans-107"/>
     </defs>
     <use transform="translate(0 0.015625)" xlink:href="#DejaVuSans-Oblique-84"/>
     <use transform="translate(61.083984 -16.390625)scale(0.7)" xlink:href="#DejaVuSans-78"/>
     <use transform="translate(116.181641 0.015625)" xlink:href="#DejaVuSans-32"/>
     <use transform="translate(147.96875 0.015625)" xlink:href="#DejaVuSans-122"/>
     <use transform="translate(200.458984 0.015625)" xlink:href="#DejaVuSans-117"/>
     <use transform="translate(263.837891 0.015625)" xlink:href="#DejaVuSans-32"/>
     <use transform="translate(295.625 0.015625)" xlink:href="#DejaVuSans-107"/>
     <use transform="translate(353.535156 0.015625)" xlink:href="#DejaVuSans-108"/>
     <use transform="translate(381.318359 0.015625)" xlink:href="#DejaVuSans-101"/>
     <use transform="translate(442.841797 0.015625)" xlink:href="#DejaVuSans-105"/>
     <use transform="translate(470.625 0.015625)" xlink:href="#DejaVuSans-110"/>
    </g>
   </g>
  </g>
 </g>
 <defs>
  <clipPath id="p67a7a15194">
   <rect height="139.52" width="309.92" x="68.08" y="10.8"/>
  </clipPath>
  <clipPath id="p87dbabfa4c">
   <rect height="139.52" width="309.92" x="68.08" y="175.2"/>
  </clipPath>
  <clipPath id="p0e2808d5ed">
   <rect height="139.52" width="309.92" x="68.08" y="339.6"/>
  </clipPath>
 </defs>
</svg>
